<svg width="512" height="512" viewBox="0 0 512 512" xmlns="http://www.w3.org/2000/svg">
  <defs>
    <linearGradient id="bg" x1="70" y1="40" x2="440" y2="470" gradientUnits="userSpaceOnUse">
      <stop stop-color="#FDF2F8"/>
      <stop offset="0.45" stop-color="#EDE9FE"/>
      <stop offset="1" stop-color="#A78BFA"/>
    </linearGradient>

    <linearGradient id="petal1" x1="210" y1="100" x2="310" y2="275" gradientUnits="userSpaceOnUse">
      <stop stop-color="#F472B6"/>
      <stop offset="1" stop-color="#8B5CF6"/>
    </linearGradient>

    <linearGradient id="petal2" x1="145" y1="175" x2="260" y2="300" gradientUnits="userSpaceOnUse">
      <stop stop-color="#38BDF8"/>
      <stop offset="1" stop-color="#8B5CF6"/>
    </linearGradient>

    <linearGradient id="petal3" x1="365" y1="175" x2="250" y2="300" gradientUnits="userSpaceOnUse">
      <stop stop-color="#F9A8D4"/>
      <stop offset="1" stop-color="#8B5CF6"/>
    </linearGradient>

    <linearGradient id="leaf" x1="220" y1="300" x2="292" y2="450" gradientUnits="userSpaceOnUse">
      <stop stop-color="#34D399"/>
      <stop offset="1" stop-color="#059669"/>
    </linearGradient>
  </defs>

  <rect width="512" height="512" rx="120" fill="url(#bg)"/>

  <circle cx="130" cy="120" r="90" fill="#38BDF8" opacity="0.22"/>
  <circle cx="388" cy="150" r="110" fill="#F472B6" opacity="0.22"/>
  <circle cx="260" cy="410" r="120" fill="#34D399" opacity="0.18"/>

  <path d="M256 288C256 288 208 236 208 188C208 150 230 126 256 126C282 126 304 150 304 188C304 236 256 288 256 288Z" fill="url(#petal1)"/>
  <path d="M250 294C250 294 178 288 154 248C136 218 143 184 168 172C193 160 226 177 246 210C268 247 250 294 250 294Z" fill="url(#petal2)"/>
  <path d="M262 294C262 294 334 288 358 248C376 218 369 184 344 172C319 160 286 177 266 210C244 247 262 294 262 294Z" fill="url(#petal3)"/>

  <path d="M256 292C256 292 216 344 224 390C230 426 250 448 256 448C262 448 282 426 288 390C296 344 256 292 256 292Z" fill="url(#leaf)"/>

  <circle cx="256" cy="286" r="42" fill="#FACC15"/>
  <circle cx="242" cy="272" r="10" fill="#FFFFFF" opacity="0.6"/>

  <path d="M170 364C202 336 231 324 256 324C281 324 310 336 342 364" stroke="#FFFFFF" stroke-width="20" stroke-linecap="round" opacity="0.72"/>
</svg>